<?xml version="1.0" encoding="UTF-8" standalone="no"?>
<!DOCTYPE svg PUBLIC "-//W3C//DTD SVG 1.1//EN"
 "http://www.w3.org/Graphics/SVG/1.1/DTD/svg11.dtd">
<!-- Generated by graphviz version 2.38.0 (20140413.2041)
 -->
<!-- Title: G Pages: 1 -->
<svg width="523pt" height="1237pt"
 viewBox="0.00 0.00 522.67 1237.00" xmlns="http://www.w3.org/2000/svg" xmlns:xlink="http://www.w3.org/1999/xlink">
<g id="graph0" class="graph" transform="scale(1 1) rotate(0) translate(4 1233)">
<title>G</title>
<polygon fill="white" stroke="none" points="-4,4 -4,-1233 518.669,-1233 518.669,4 -4,4"/>
<g id="clust1" class="cluster"><title>cluster_Global</title>
<path fill="none" stroke="gray" d="M164.834,-8C164.834,-8 494.669,-8 494.669,-8 500.669,-8 506.669,-14 506.669,-20 506.669,-20 506.669,-1209 506.669,-1209 506.669,-1215 500.669,-1221 494.669,-1221 494.669,-1221 164.834,-1221 164.834,-1221 158.834,-1221 152.834,-1215 152.834,-1209 152.834,-1209 152.834,-20 152.834,-20 152.834,-14 158.834,-8 164.834,-8"/>
<text text-anchor="middle" x="329.752" y="-1208.2" font-family="Times,serif" font-size="11.00" fill="gray">Global</text>
</g>
<g id="clust2" class="cluster"><title>cluster_\Alphred</title>
<path fill="none" stroke="gray" d="M172.834,-16C172.834,-16 486.669,-16 486.669,-16 492.669,-16 498.669,-22 498.669,-28 498.669,-28 498.669,-1182 498.669,-1182 498.669,-1188 492.669,-1194 486.669,-1194 486.669,-1194 172.834,-1194 172.834,-1194 166.834,-1194 160.834,-1188 160.834,-1182 160.834,-1182 160.834,-28 160.834,-28 160.834,-22 166.834,-16 172.834,-16"/>
<text text-anchor="middle" x="329.752" y="-1181.2" font-family="Times,serif" font-size="11.00" fill="gray">Alphred</text>
</g>
<g id="clust3" class="cluster"><title>cluster_\Alphred\Database</title>
<path fill="none" stroke="gray" d="M380.457,-1042C380.457,-1042 426.457,-1042 426.457,-1042 432.457,-1042 438.457,-1048 438.457,-1054 438.457,-1054 438.457,-1155 438.457,-1155 438.457,-1161 432.457,-1167 426.457,-1167 426.457,-1167 380.457,-1167 380.457,-1167 374.457,-1167 368.457,-1161 368.457,-1155 368.457,-1155 368.457,-1054 368.457,-1054 368.457,-1048 374.457,-1042 380.457,-1042"/>
<text text-anchor="middle" x="403.457" y="-1154.2" font-family="Times,serif" font-size="11.00" fill="gray">Database</text>
</g>
<!-- \\Alphred\\Database\\Data -->
<g id="node1" class="node"><title>\\Alphred\\Database\\Data</title>
<polygon fill="none" stroke="black" points="430.457,-1140 376.457,-1140 376.457,-1104 430.457,-1104 430.457,-1140"/>
<text text-anchor="middle" x="403.457" y="-1118.7" font-family="Courier,monospace" font-size="11.00">Data</text>
</g>
<!-- \\Alphred\\Database\\Index -->
<g id="node2" class="node"><title>\\Alphred\\Database\\Index</title>
<polygon fill="none" stroke="black" points="430.457,-1086 376.457,-1086 376.457,-1050 430.457,-1050 430.457,-1086"/>
<text text-anchor="middle" x="403.457" y="-1064.7" font-family="Courier,monospace" font-size="11.00">Index</text>
</g>
<!-- \\Alphred\\Server -->
<g id="node3" class="node"><title>\\Alphred\\Server</title>
<polygon fill="none" stroke="black" points="431.064,-1032 375.849,-1032 375.849,-996 431.064,-996 431.064,-1032"/>
<text text-anchor="middle" x="403.457" y="-1010.7" font-family="Courier,monospace" font-size="11.00">Server</text>
</g>
<!-- \\Alphred\\Workflows -->
<g id="node4" class="node"><title>\\Alphred\\Workflows</title>
<polygon fill="none" stroke="black" points="441.367,-978 365.546,-978 365.546,-942 441.367,-942 441.367,-978"/>
<text text-anchor="middle" x="403.457" y="-956.7" font-family="Courier,monospace" font-size="11.00">Workflows</text>
</g>
<!-- \\Alphred\\Date -->
<g id="node5" class="node"><title>\\Alphred\\Date</title>
<polygon fill="none" stroke="black" points="430.457,-924 376.457,-924 376.457,-888 430.457,-888 430.457,-924"/>
<text text-anchor="middle" x="403.457" y="-902.7" font-family="Courier,monospace" font-size="11.00">Date</text>
</g>
<!-- \\Alphred\\Alfred -->
<g id="node6" class="node"><title>\\Alphred\\Alfred</title>
<polygon fill="none" stroke="black" points="431.064,-870 375.849,-870 375.849,-834 431.064,-834 431.064,-870"/>
<text text-anchor="middle" x="403.457" y="-848.7" font-family="Courier,monospace" font-size="11.00">Alfred</text>
</g>
<!-- \\Alphred\\ScriptFilter -->
<g id="node7" class="node"><title>\\Alphred\\ScriptFilter</title>
<polygon fill="none" stroke="black" points="451.17,-816 355.743,-816 355.743,-780 451.17,-780 451.17,-816"/>
<text text-anchor="middle" x="403.457" y="-794.7" font-family="Courier,monospace" font-size="11.00">ScriptFilter</text>
</g>
<!-- \\Alphred\\Result -->
<g id="node8" class="node"><title>\\Alphred\\Result</title>
<polygon fill="none" stroke="black" points="431.064,-762 375.849,-762 375.849,-726 431.064,-726 431.064,-762"/>
<text text-anchor="middle" x="403.457" y="-740.7" font-family="Courier,monospace" font-size="11.00">Result</text>
</g>
<!-- \\Alphred\\Log -->
<g id="node9" class="node"><title>\\Alphred\\Log</title>
<polygon fill="none" stroke="black" points="430.457,-708 376.457,-708 376.457,-672 430.457,-672 430.457,-708"/>
<text text-anchor="middle" x="403.457" y="-686.7" font-family="Courier,monospace" font-size="11.00">Log</text>
</g>
<!-- \\Alphred\\Config -->
<g id="node10" class="node"><title>\\Alphred\\Config</title>
<polygon fill="none" stroke="black" points="431.064,-654 375.849,-654 375.849,-618 431.064,-618 431.064,-654"/>
<text text-anchor="middle" x="403.457" y="-632.7" font-family="Courier,monospace" font-size="11.00">Config</text>
</g>
<!-- \\Alphred\\Text -->
<g id="node11" class="node"><title>\\Alphred\\Text</title>
<polygon fill="none" stroke="black" points="430.457,-600 376.457,-600 376.457,-564 430.457,-564 430.457,-600"/>
<text text-anchor="middle" x="403.457" y="-578.7" font-family="Courier,monospace" font-size="11.00">Text</text>
</g>
<!-- \\Alphred\\Exception -->
<g id="node12" class="node"><title>\\Alphred\\Exception</title>
<polygon fill="none" stroke="black" points="244.45,-411 168.628,-411 168.628,-375 244.45,-375 244.45,-411"/>
<text text-anchor="middle" x="206.539" y="-389.7" font-family="Courier,monospace" font-size="11.00">Exception</text>
</g>
<!-- \\Exception -->
<g id="node23" class="node"><title>\\Exception</title>
<ellipse fill="none" stroke="black" cx="48.417" cy="-393" rx="48.3341" ry="18"/>
<text text-anchor="middle" x="48.417" y="-388.8" font-family="Times,serif" font-size="14.00" fill="gray">\Exception</text>
</g>
<!-- \\Alphred\\Exception&#45;&gt;\\Exception -->
<g id="edge1" class="edge"><title>\\Alphred\\Exception&#45;&gt;\\Exception</title>
<path fill="none" stroke="black" d="M168.54,-393C150.258,-393 127.776,-393 107.287,-393"/>
<polygon fill="none" stroke="black" points="107.102,-389.5 97.102,-393 107.102,-396.5 107.102,-389.5"/>
</g>
<!-- \\Alphred\\UseOnlyAsStatic -->
<g id="node13" class="node"><title>\\Alphred\\UseOnlyAsStatic</title>
<polygon fill="none" stroke="black" points="460.973,-546 345.94,-546 345.94,-510 460.973,-510 460.973,-546"/>
<text text-anchor="middle" x="403.457" y="-524.7" font-family="Courier,monospace" font-size="11.00">UseOnlyAsStatic</text>
</g>
<!-- \\Alphred\\UseOnlyAsStatic&#45;&gt;\\Alphred\\Exception -->
<g id="edge2" class="edge"><title>\\Alphred\\UseOnlyAsStatic&#45;&gt;\\Alphred\\Exception</title>
<path fill="none" stroke="black" d="M345.582,-514.456C335.435,-510.865 325.242,-506.428 316.244,-501 280.429,-479.394 247.603,-443.59 227.604,-419.177"/>
<polygon fill="none" stroke="black" points="230.322,-416.972 221.328,-411.372 224.867,-421.358 230.322,-416.972"/>
</g>
<!-- \\Alphred\\InvalidKeychainAccount -->
<g id="node14" class="node"><title>\\Alphred\\InvalidKeychainAccount</title>
<polygon fill="none" stroke="black" points="484.18,-492 322.733,-492 322.733,-456 484.18,-456 484.18,-492"/>
<text text-anchor="middle" x="403.457" y="-470.7" font-family="Courier,monospace" font-size="11.00">InvalidKeychainAccount</text>
</g>
<!-- \\Alphred\\InvalidKeychainAccount&#45;&gt;\\Alphred\\Exception -->
<g id="edge3" class="edge"><title>\\Alphred\\InvalidKeychainAccount&#45;&gt;\\Alphred\\Exception</title>
<path fill="none" stroke="black" d="M340.811,-455.999C332.481,-453.187 324.102,-450.159 316.244,-447 293.795,-437.974 269.617,-426.183 249.776,-415.921"/>
<polygon fill="none" stroke="black" points="251.183,-412.708 240.699,-411.178 247.941,-418.912 251.183,-412.708"/>
</g>
<!-- \\Alphred\\PasswordExists -->
<g id="node15" class="node"><title>\\Alphred\\PasswordExists</title>
<polygon fill="none" stroke="black" points="457.872,-438 349.041,-438 349.041,-402 457.872,-402 457.872,-438"/>
<text text-anchor="middle" x="403.457" y="-416.7" font-family="Courier,monospace" font-size="11.00">PasswordExists</text>
</g>
<!-- \\Alphred\\PasswordExists&#45;&gt;\\Alphred\\Exception -->
<g id="edge4" class="edge"><title>\\Alphred\\PasswordExists&#45;&gt;\\Alphred\\Exception</title>
<path fill="none" stroke="black" d="M349.194,-412.622C319.58,-408.52 283.057,-403.461 254.515,-399.507"/>
<polygon fill="none" stroke="black" points="254.773,-396.01 244.387,-398.104 253.813,-402.943 254.773,-396.01"/>
</g>
<!-- \\Alphred\\PasswordNotFound -->
<g id="node16" class="node"><title>\\Alphred\\PasswordNotFound</title>
<polygon fill="none" stroke="black" points="464.074,-384 342.839,-384 342.839,-348 464.074,-348 464.074,-384"/>
<text text-anchor="middle" x="403.457" y="-362.7" font-family="Courier,monospace" font-size="11.00">PasswordNotFound</text>
</g>
<!-- \\Alphred\\PasswordNotFound&#45;&gt;\\Alphred\\Exception -->
<g id="edge5" class="edge"><title>\\Alphred\\PasswordNotFound&#45;&gt;\\Alphred\\Exception</title>
<path fill="none" stroke="black" d="M342.65,-374.284C314.296,-378.212 280.918,-382.836 254.432,-386.504"/>
<polygon fill="none" stroke="black" points="253.701,-383.072 244.276,-387.911 254.662,-390.006 253.701,-383.072"/>
</g>
<!-- \\Alphred\\InvalidSecurityAction -->
<g id="node17" class="node"><title>\\Alphred\\InvalidSecurityAction</title>
<polygon fill="none" stroke="black" points="480.58,-330 326.334,-330 326.334,-294 480.58,-294 480.58,-330"/>
<text text-anchor="middle" x="403.457" y="-308.7" font-family="Courier,monospace" font-size="11.00">InvalidSecurityAction</text>
</g>
<!-- \\Alphred\\InvalidSecurityAction&#45;&gt;\\Alphred\\Exception -->
<g id="edge6" class="edge"><title>\\Alphred\\InvalidSecurityAction&#45;&gt;\\Alphred\\Exception</title>
<path fill="none" stroke="black" d="M340.811,-330.001C332.481,-332.813 324.102,-335.841 316.244,-339 293.795,-348.026 269.617,-359.817 249.776,-370.079"/>
<polygon fill="none" stroke="black" points="247.941,-367.088 240.699,-374.822 251.183,-373.292 247.941,-367.088"/>
</g>
<!-- \\Alphred\\UnknownSecurityException -->
<g id="node18" class="node"><title>\\Alphred\\UnknownSecurityException</title>
<polygon fill="none" stroke="black" points="490.883,-276 316.03,-276 316.03,-240 490.883,-240 490.883,-276"/>
<text text-anchor="middle" x="403.457" y="-254.7" font-family="Courier,monospace" font-size="11.00">UnknownSecurityException</text>
</g>
<!-- \\Alphred\\UnknownSecurityException&#45;&gt;\\Alphred\\Exception -->
<g id="edge7" class="edge"><title>\\Alphred\\UnknownSecurityException&#45;&gt;\\Alphred\\Exception</title>
<path fill="none" stroke="black" d="M333.821,-276.115C327.704,-278.728 321.75,-281.678 316.244,-285 280.429,-306.606 247.603,-342.41 227.604,-366.823"/>
<polygon fill="none" stroke="black" points="224.867,-364.642 221.328,-374.628 230.322,-369.028 224.867,-364.642"/>
</g>
<!-- \\Alphred\\http -->
<g id="node19" class="node"><title>\\Alphred\\http</title>
<polygon fill="none" stroke="black" points="430.457,-222 376.457,-222 376.457,-186 430.457,-186 430.457,-222"/>
<text text-anchor="middle" x="403.457" y="-200.7" font-family="Courier,monospace" font-size="11.00">http</text>
</g>
<!-- \\Alphred\\i18n -->
<g id="node20" class="node"><title>\\Alphred\\i18n</title>
<polygon fill="none" stroke="black" points="430.457,-168 376.457,-168 376.457,-132 430.457,-132 430.457,-168"/>
<text text-anchor="middle" x="403.457" y="-146.7" font-family="Courier,monospace" font-size="11.00">i18n</text>
</g>
<!-- \\Alphred\\Keychain -->
<g id="node21" class="node"><title>\\Alphred\\Keychain</title>
<polygon fill="none" stroke="black" points="437.765,-114 369.148,-114 369.148,-78 437.765,-78 437.765,-114"/>
<text text-anchor="middle" x="403.457" y="-92.7" font-family="Courier,monospace" font-size="11.00">Keychain</text>
</g>
<!-- \\Alphred\\Globals -->
<g id="node22" class="node"><title>\\Alphred\\Globals</title>
<polygon fill="none" stroke="black" points="434.664,-60 372.249,-60 372.249,-24 434.664,-24 434.664,-60"/>
<text text-anchor="middle" x="403.457" y="-38.7" font-family="Courier,monospace" font-size="11.00">Globals</text>
</g>
</g>
</svg>
