<?xml version="1.0" encoding="UTF-8" standalone="no"?>
<!DOCTYPE svg PUBLIC "-//W3C//DTD SVG 1.1//EN"
 "http://www.w3.org/Graphics/SVG/1.1/DTD/svg11.dtd">
<!-- Generated by graphviz version 2.38.0 (20140413.2041)
 -->
<!-- Title: G Pages: 1 -->
<svg width="542pt" height="1796pt"
 viewBox="0.00 0.00 542.47 1796.00" xmlns="http://www.w3.org/2000/svg" xmlns:xlink="http://www.w3.org/1999/xlink">
<g id="graph0" class="graph" transform="scale(1 1) rotate(0) translate(4 1792)">
<title>G</title>
<polygon fill="white" stroke="none" points="-4,4 -4,-1792 538.473,-1792 538.473,4 -4,4"/>
<g id="clust1" class="cluster"><title>cluster_Global</title>
<path fill="none" stroke="gray" d="M164.834,-8C164.834,-8 514.473,-8 514.473,-8 520.473,-8 526.473,-14 526.473,-20 526.473,-20 526.473,-1768 526.473,-1768 526.473,-1774 520.473,-1780 514.473,-1780 514.473,-1780 164.834,-1780 164.834,-1780 158.834,-1780 152.834,-1774 152.834,-1768 152.834,-1768 152.834,-20 152.834,-20 152.834,-14 158.834,-8 164.834,-8"/>
<text text-anchor="middle" x="339.653" y="-1767.2" font-family="Times,serif" font-size="11.00" fill="gray">Global</text>
</g>
<g id="clust2" class="cluster"><title>cluster_\Alphred</title>
<path fill="none" stroke="gray" d="M172.834,-62C172.834,-62 506.473,-62 506.473,-62 512.473,-62 518.473,-68 518.473,-74 518.473,-74 518.473,-1741 518.473,-1741 518.473,-1747 512.473,-1753 506.473,-1753 506.473,-1753 172.834,-1753 172.834,-1753 166.834,-1753 160.834,-1747 160.834,-1741 160.834,-1741 160.834,-74 160.834,-74 160.834,-68 166.834,-62 172.834,-62"/>
<text text-anchor="middle" x="339.653" y="-1740.2" font-family="Times,serif" font-size="11.00" fill="gray">Alphred</text>
</g>
<!-- \\Alphred\\ScriptFilter -->
<g id="node1" class="node"><title>\\Alphred\\ScriptFilter</title>
<polygon fill="none" stroke="black" points="461.071,-1726 365.645,-1726 365.645,-1690 461.071,-1690 461.071,-1726"/>
<text text-anchor="middle" x="413.358" y="-1704.7" font-family="Courier,monospace" font-size="11.00">ScriptFilter</text>
</g>
<!-- \\Alphred\\Result -->
<g id="node2" class="node"><title>\\Alphred\\Result</title>
<polygon fill="none" stroke="black" points="440.966,-1672 385.75,-1672 385.75,-1636 440.966,-1636 440.966,-1672"/>
<text text-anchor="middle" x="413.358" y="-1650.7" font-family="Courier,monospace" font-size="11.00">Result</text>
</g>
<!-- \\Alphred\\Notification -->
<g id="node3" class="node"><title>\\Alphred\\Notification</title>
<polygon fill="none" stroke="black" points="461.071,-1618 365.645,-1618 365.645,-1582 461.071,-1582 461.071,-1618"/>
<text text-anchor="middle" x="413.358" y="-1596.7" font-family="Courier,monospace" font-size="11.00">Notification</text>
</g>
<!-- \\Alphred\\Request -->
<g id="node4" class="node"><title>\\Alphred\\Request</title>
<polygon fill="none" stroke="black" points="444.566,-1564 382.15,-1564 382.15,-1528 444.566,-1528 444.566,-1564"/>
<text text-anchor="middle" x="413.358" y="-1542.7" font-family="Courier,monospace" font-size="11.00">Request</text>
</g>
<!-- \\Alphred\\Date -->
<g id="node5" class="node"><title>\\Alphred\\Date</title>
<polygon fill="none" stroke="black" points="440.358,-1510 386.358,-1510 386.358,-1474 440.358,-1474 440.358,-1510"/>
<text text-anchor="middle" x="413.358" y="-1488.7" font-family="Courier,monospace" font-size="11.00">Date</text>
</g>
<!-- \\Alphred\\Choose -->
<g id="node6" class="node"><title>\\Alphred\\Choose</title>
<polygon fill="none" stroke="black" points="440.966,-1456 385.75,-1456 385.75,-1420 440.966,-1420 440.966,-1456"/>
<text text-anchor="middle" x="413.358" y="-1434.7" font-family="Courier,monospace" font-size="11.00">Choose</text>
</g>
<!-- \\Alphred\\Alfred -->
<g id="node7" class="node"><title>\\Alphred\\Alfred</title>
<polygon fill="none" stroke="black" points="440.966,-1402 385.75,-1402 385.75,-1366 440.966,-1366 440.966,-1402"/>
<text text-anchor="middle" x="413.358" y="-1380.7" font-family="Courier,monospace" font-size="11.00">Alfred</text>
</g>
<!-- \\Alphred\\Filter -->
<g id="node8" class="node"><title>\\Alphred\\Filter</title>
<polygon fill="none" stroke="black" points="440.966,-1348 385.75,-1348 385.75,-1312 440.966,-1312 440.966,-1348"/>
<text text-anchor="middle" x="413.358" y="-1326.7" font-family="Courier,monospace" font-size="11.00">Filter</text>
</g>
<!-- \\Alphred\\Log -->
<g id="node9" class="node"><title>\\Alphred\\Log</title>
<polygon fill="none" stroke="black" points="440.358,-1294 386.358,-1294 386.358,-1258 440.358,-1258 440.358,-1294"/>
<text text-anchor="middle" x="413.358" y="-1272.7" font-family="Courier,monospace" font-size="11.00">Log</text>
</g>
<!-- \\Alphred\\Config -->
<g id="node10" class="node"><title>\\Alphred\\Config</title>
<polygon fill="none" stroke="black" points="440.966,-1240 385.75,-1240 385.75,-1204 440.966,-1204 440.966,-1240"/>
<text text-anchor="middle" x="413.358" y="-1218.7" font-family="Courier,monospace" font-size="11.00">Config</text>
</g>
<!-- \\Alphred\\Text -->
<g id="node11" class="node"><title>\\Alphred\\Text</title>
<polygon fill="none" stroke="black" points="440.358,-1186 386.358,-1186 386.358,-1150 440.358,-1150 440.358,-1186"/>
<text text-anchor="middle" x="413.358" y="-1164.7" font-family="Courier,monospace" font-size="11.00">Text</text>
</g>
<!-- \\Alphred\\Exception -->
<g id="node12" class="node"><title>\\Alphred\\Exception</title>
<polygon fill="none" stroke="black" points="244.45,-781 168.628,-781 168.628,-745 244.45,-745 244.45,-781"/>
<text text-anchor="middle" x="206.539" y="-759.7" font-family="Courier,monospace" font-size="11.00">Exception</text>
</g>
<!-- \\Exception -->
<g id="node34" class="node"><title>\\Exception</title>
<ellipse fill="none" stroke="black" cx="48.417" cy="-763" rx="48.3341" ry="18"/>
<text text-anchor="middle" x="48.417" y="-758.8" font-family="Times,serif" font-size="14.00" fill="gray">\Exception</text>
</g>
<!-- \\Alphred\\Exception&#45;&gt;\\Exception -->
<g id="edge1" class="edge"><title>\\Alphred\\Exception&#45;&gt;\\Exception</title>
<path fill="none" stroke="black" d="M168.54,-763C150.258,-763 127.776,-763 107.287,-763"/>
<polygon fill="none" stroke="black" points="107.102,-759.5 97.102,-763 107.102,-766.5 107.102,-759.5"/>
</g>
<!-- \\Alphred\\UseOnlyAsStatic -->
<g id="node13" class="node"><title>\\Alphred\\UseOnlyAsStatic</title>
<polygon fill="none" stroke="black" points="470.874,-1132 355.842,-1132 355.842,-1096 470.874,-1096 470.874,-1132"/>
<text text-anchor="middle" x="413.358" y="-1110.7" font-family="Courier,monospace" font-size="11.00">UseOnlyAsStatic</text>
</g>
<!-- \\Alphred\\UseOnlyAsStatic&#45;&gt;\\Alphred\\Exception -->
<g id="edge2" class="edge"><title>\\Alphred\\UseOnlyAsStatic&#45;&gt;\\Alphred\\Exception</title>
<path fill="none" stroke="black" d="M355.784,-1107.69C341.434,-1103.69 327.043,-1097.27 316.244,-1087 230.477,-1005.41 212.369,-854.19 208.554,-791.438"/>
<polygon fill="none" stroke="black" points="212.032,-790.928 208.009,-781.126 205.041,-791.297 212.032,-790.928"/>
</g>
<!-- \\Alphred\\RunningOutsideOfAlfred -->
<g id="node14" class="node"><title>\\Alphred\\RunningOutsideOfAlfred</title>
<polygon fill="none" stroke="black" points="494.082,-1078 332.634,-1078 332.634,-1042 494.082,-1042 494.082,-1078"/>
<text text-anchor="middle" x="413.358" y="-1056.7" font-family="Courier,monospace" font-size="11.00">RunningOutsideOfAlfred</text>
</g>
<!-- \\Alphred\\RunningOutsideOfAlfred&#45;&gt;\\Alphred\\Exception -->
<g id="edge3" class="edge"><title>\\Alphred\\RunningOutsideOfAlfred&#45;&gt;\\Alphred\\Exception</title>
<path fill="none" stroke="black" d="M332.636,-1044.17C326.713,-1041.08 321.147,-1037.4 316.244,-1033 243.232,-967.536 218.447,-846.167 210.728,-791.271"/>
<polygon fill="none" stroke="black" points="214.179,-790.671 209.402,-781.214 207.239,-791.586 214.179,-790.671"/>
</g>
<!-- \\Alphred\\InvalidScriptFilterArgument -->
<g id="node15" class="node"><title>\\Alphred\\InvalidScriptFilterArgument</title>
<polygon fill="none" stroke="black" points="510.587,-1024 316.129,-1024 316.129,-988 510.587,-988 510.587,-1024"/>
<text text-anchor="middle" x="413.358" y="-1002.7" font-family="Courier,monospace" font-size="11.00">InvalidScriptFilterArgument</text>
</g>
<!-- \\Alphred\\InvalidScriptFilterArgument&#45;&gt;\\Alphred\\Exception -->
<g id="edge4" class="edge"><title>\\Alphred\\InvalidScriptFilterArgument&#45;&gt;\\Alphred\\Exception</title>
<path fill="none" stroke="black" d="M329.277,-987.757C324.649,-985.209 320.257,-982.307 316.244,-979 255.827,-929.218 225.75,-837.352 213.869,-791.126"/>
<polygon fill="none" stroke="black" points="217.212,-790.066 211.418,-781.196 210.416,-791.743 217.212,-790.066"/>
</g>
<!-- \\Alphred\\InvalidKeychainAccount -->
<g id="node16" class="node"><title>\\Alphred\\InvalidKeychainAccount</title>
<polygon fill="none" stroke="black" points="494.082,-970 332.634,-970 332.634,-934 494.082,-934 494.082,-970"/>
<text text-anchor="middle" x="413.358" y="-948.7" font-family="Courier,monospace" font-size="11.00">InvalidKeychainAccount</text>
</g>
<!-- \\Alphred\\InvalidKeychainAccount&#45;&gt;\\Alphred\\Exception -->
<g id="edge5" class="edge"><title>\\Alphred\\InvalidKeychainAccount&#45;&gt;\\Alphred\\Exception</title>
<path fill="none" stroke="black" d="M332.608,-934.561C326.83,-931.825 321.297,-928.66 316.244,-925 268.102,-890.133 234.878,-826.936 218.744,-790.639"/>
<polygon fill="none" stroke="black" points="221.828,-788.952 214.649,-781.16 215.402,-791.728 221.828,-788.952"/>
</g>
<!-- \\Alphred\\PasswordExists -->
<g id="node17" class="node"><title>\\Alphred\\PasswordExists</title>
<polygon fill="none" stroke="black" points="467.774,-916 358.942,-916 358.942,-880 467.774,-880 467.774,-916"/>
<text text-anchor="middle" x="413.358" y="-894.7" font-family="Courier,monospace" font-size="11.00">PasswordExists</text>
</g>
<!-- \\Alphred\\PasswordExists&#45;&gt;\\Alphred\\Exception -->
<g id="edge6" class="edge"><title>\\Alphred\\PasswordExists&#45;&gt;\\Alphred\\Exception</title>
<path fill="none" stroke="black" d="M359.031,-888.168C344.542,-884.149 329.269,-878.597 316.244,-871 279.906,-849.807 246.985,-813.59 227.123,-788.995"/>
<polygon fill="none" stroke="black" points="229.854,-786.805 220.902,-781.138 224.366,-791.151 229.854,-786.805"/>
</g>
<!-- \\Alphred\\PasswordNotFound -->
<g id="node18" class="node"><title>\\Alphred\\PasswordNotFound</title>
<polygon fill="none" stroke="black" points="473.976,-862 352.74,-862 352.74,-826 473.976,-826 473.976,-862"/>
<text text-anchor="middle" x="413.358" y="-840.7" font-family="Courier,monospace" font-size="11.00">PasswordNotFound</text>
</g>
<!-- \\Alphred\\PasswordNotFound&#45;&gt;\\Alphred\\Exception -->
<g id="edge7" class="edge"><title>\\Alphred\\PasswordNotFound&#45;&gt;\\Alphred\\Exception</title>
<path fill="none" stroke="black" d="M352.57,-829.079C340.412,-825.523 327.809,-821.452 316.244,-817 293.494,-808.243 269.108,-796.374 249.21,-785.993"/>
<polygon fill="none" stroke="black" points="250.595,-782.767 240.118,-781.191 247.326,-788.956 250.595,-782.767"/>
</g>
<!-- \\Alphred\\InvalidSecurityAction -->
<g id="node19" class="node"><title>\\Alphred\\InvalidSecurityAction</title>
<polygon fill="none" stroke="black" points="490.481,-808 336.235,-808 336.235,-772 490.481,-772 490.481,-808"/>
<text text-anchor="middle" x="413.358" y="-786.7" font-family="Courier,monospace" font-size="11.00">InvalidSecurityAction</text>
</g>
<!-- \\Alphred\\InvalidSecurityAction&#45;&gt;\\Alphred\\Exception -->
<g id="edge8" class="edge"><title>\\Alphred\\InvalidSecurityAction&#45;&gt;\\Alphred\\Exception</title>
<path fill="none" stroke="black" d="M336.091,-779.946C308.624,-776.325 278.467,-772.35 254.27,-769.16"/>
<polygon fill="none" stroke="black" points="254.661,-765.682 244.289,-767.845 253.746,-772.622 254.661,-765.682"/>
</g>
<!-- \\Alphred\\UnknownSecurityException -->
<g id="node20" class="node"><title>\\Alphred\\UnknownSecurityException</title>
<polygon fill="none" stroke="black" points="500.784,-754 325.932,-754 325.932,-718 500.784,-718 500.784,-754"/>
<text text-anchor="middle" x="413.358" y="-732.7" font-family="Courier,monospace" font-size="11.00">UnknownSecurityException</text>
</g>
<!-- \\Alphred\\UnknownSecurityException&#45;&gt;\\Alphred\\Exception -->
<g id="edge9" class="edge"><title>\\Alphred\\UnknownSecurityException&#45;&gt;\\Alphred\\Exception</title>
<path fill="none" stroke="black" d="M326.09,-747.372C301.568,-750.605 275.78,-754.004 254.541,-756.804"/>
<polygon fill="none" stroke="black" points="253.962,-753.35 244.505,-758.127 254.877,-760.29 253.962,-753.35"/>
</g>
<!-- \\Alphred\\TooManyArguments -->
<g id="node21" class="node"><title>\\Alphred\\TooManyArguments</title>
<polygon fill="none" stroke="black" points="473.976,-700 352.74,-700 352.74,-664 473.976,-664 473.976,-700"/>
<text text-anchor="middle" x="413.358" y="-678.7" font-family="Courier,monospace" font-size="11.00">TooManyArguments</text>
</g>
<!-- \\Alphred\\TooManyArguments&#45;&gt;\\Alphred\\Exception -->
<g id="edge10" class="edge"><title>\\Alphred\\TooManyArguments&#45;&gt;\\Alphred\\Exception</title>
<path fill="none" stroke="black" d="M352.57,-696.921C340.412,-700.477 327.809,-704.548 316.244,-709 293.494,-717.757 269.108,-729.626 249.21,-740.007"/>
<polygon fill="none" stroke="black" points="247.326,-737.044 240.118,-744.809 250.595,-743.233 247.326,-737.044"/>
</g>
<!-- \\Alphred\\InvalidXMLProperty -->
<g id="node22" class="node"><title>\\Alphred\\InvalidXMLProperty</title>
<polygon fill="none" stroke="black" points="480.678,-646 346.039,-646 346.039,-610 480.678,-610 480.678,-646"/>
<text text-anchor="middle" x="413.358" y="-624.7" font-family="Courier,monospace" font-size="11.00">InvalidXMLProperty</text>
</g>
<!-- \\Alphred\\InvalidXMLProperty&#45;&gt;\\Alphred\\Exception -->
<g id="edge11" class="edge"><title>\\Alphred\\InvalidXMLProperty&#45;&gt;\\Alphred\\Exception</title>
<path fill="none" stroke="black" d="M345.912,-641.86C335.614,-645.352 325.377,-649.673 316.244,-655 279.906,-676.193 246.985,-712.41 227.123,-737.005"/>
<polygon fill="none" stroke="black" points="224.366,-734.849 220.902,-744.862 229.854,-739.195 224.366,-734.849"/>
</g>
<!-- \\Alphred\\ShouldBeBool -->
<g id="node23" class="node"><title>\\Alphred\\ShouldBeBool</title>
<polygon fill="none" stroke="black" points="461.071,-592 365.645,-592 365.645,-556 461.071,-556 461.071,-592"/>
<text text-anchor="middle" x="413.358" y="-570.7" font-family="Courier,monospace" font-size="11.00">ShouldBeBool</text>
</g>
<!-- \\Alphred\\ShouldBeBool&#45;&gt;\\Alphred\\Exception -->
<g id="edge12" class="edge"><title>\\Alphred\\ShouldBeBool&#45;&gt;\\Alphred\\Exception</title>
<path fill="none" stroke="black" d="M365.404,-580.299C348.729,-584.237 330.562,-590.63 316.244,-601 268.102,-635.867 234.878,-699.064 218.744,-735.361"/>
<polygon fill="none" stroke="black" points="215.402,-734.272 214.649,-744.84 221.828,-737.048 215.402,-734.272"/>
</g>
<!-- \\Alphred\\FileDoesNotExist -->
<g id="node24" class="node"><title>\\Alphred\\FileDoesNotExist</title>
<polygon fill="none" stroke="black" points="473.976,-538 352.74,-538 352.74,-502 473.976,-502 473.976,-538"/>
<text text-anchor="middle" x="413.358" y="-516.7" font-family="Courier,monospace" font-size="11.00">FileDoesNotExist</text>
</g>
<!-- \\Alphred\\FileDoesNotExist&#45;&gt;\\Alphred\\Exception -->
<g id="edge13" class="edge"><title>\\Alphred\\FileDoesNotExist&#45;&gt;\\Alphred\\Exception</title>
<path fill="none" stroke="black" d="M352.707,-528.539C339.676,-532.538 326.677,-538.403 316.244,-547 255.827,-596.782 225.75,-688.648 213.869,-734.874"/>
<polygon fill="none" stroke="black" points="210.416,-734.257 211.418,-744.804 217.212,-735.934 210.416,-734.257"/>
</g>
<!-- \\Alphred\\PluginFunctionNotFound -->
<g id="node25" class="node"><title>\\Alphred\\PluginFunctionNotFound</title>
<polygon fill="none" stroke="black" points="494.082,-484 332.634,-484 332.634,-448 494.082,-448 494.082,-484"/>
<text text-anchor="middle" x="413.358" y="-462.7" font-family="Courier,monospace" font-size="11.00">PluginFunctionNotFound</text>
</g>
<!-- \\Alphred\\PluginFunctionNotFound&#45;&gt;\\Alphred\\Exception -->
<g id="edge14" class="edge"><title>\\Alphred\\PluginFunctionNotFound&#45;&gt;\\Alphred\\Exception</title>
<path fill="none" stroke="black" d="M332.636,-481.827C326.713,-484.917 321.147,-488.603 316.244,-493 243.232,-558.464 218.447,-679.833 210.728,-734.729"/>
<polygon fill="none" stroke="black" points="207.239,-734.414 209.402,-744.786 214.179,-735.329 207.239,-734.414"/>
</g>
<!-- \\Alphred\\ConfigKeyNotSet -->
<g id="node26" class="node"><title>\\Alphred\\ConfigKeyNotSet</title>
<polygon fill="none" stroke="black" points="470.874,-430 355.842,-430 355.842,-394 470.874,-394 470.874,-430"/>
<text text-anchor="middle" x="413.358" y="-408.7" font-family="Courier,monospace" font-size="11.00">ConfigKeyNotSet</text>
</g>
<!-- \\Alphred\\ConfigKeyNotSet&#45;&gt;\\Alphred\\Exception -->
<g id="edge15" class="edge"><title>\\Alphred\\ConfigKeyNotSet&#45;&gt;\\Alphred\\Exception</title>
<path fill="none" stroke="black" d="M355.784,-418.314C341.434,-422.308 327.043,-428.726 316.244,-439 230.477,-520.594 212.369,-671.81 208.554,-734.562"/>
<polygon fill="none" stroke="black" points="205.041,-734.703 208.009,-744.874 212.032,-735.072 205.041,-734.703"/>
</g>
<!-- \\Alphred\\AppleScript -->
<g id="node27" class="node"><title>\\Alphred\\AppleScript</title>
<polygon fill="none" stroke="black" points="457.471,-376 369.245,-376 369.245,-340 457.471,-340 457.471,-376"/>
<text text-anchor="middle" x="413.358" y="-354.7" font-family="Courier,monospace" font-size="11.00">AppleScript</text>
</g>
<!-- \\Alphred\\Dialog -->
<g id="node28" class="node"><title>\\Alphred\\Dialog</title>
<polygon fill="none" stroke="black" points="440.966,-322 385.75,-322 385.75,-286 440.966,-286 440.966,-322"/>
<text text-anchor="middle" x="413.358" y="-300.7" font-family="Courier,monospace" font-size="11.00">Dialog</text>
</g>
<!-- \\Alphred\\Ini -->
<g id="node29" class="node"><title>\\Alphred\\Ini</title>
<polygon fill="none" stroke="black" points="440.358,-268 386.358,-268 386.358,-232 440.358,-232 440.358,-268"/>
<text text-anchor="middle" x="413.358" y="-246.7" font-family="Courier,monospace" font-size="11.00">Ini</text>
</g>
<!-- \\Alphred\\i18n -->
<g id="node30" class="node"><title>\\Alphred\\i18n</title>
<polygon fill="none" stroke="black" points="440.358,-214 386.358,-214 386.358,-178 440.358,-178 440.358,-214"/>
<text text-anchor="middle" x="413.358" y="-192.7" font-family="Courier,monospace" font-size="11.00">i18n</text>
</g>
<!-- \\Alphred\\Keychain -->
<g id="node31" class="node"><title>\\Alphred\\Keychain</title>
<polygon fill="none" stroke="black" points="447.667,-160 379.049,-160 379.049,-124 447.667,-124 447.667,-160"/>
<text text-anchor="middle" x="413.358" y="-138.7" font-family="Courier,monospace" font-size="11.00">Keychain</text>
</g>
<!-- \\Alphred\\Globals -->
<g id="node32" class="node"><title>\\Alphred\\Globals</title>
<polygon fill="none" stroke="black" points="444.566,-106 382.15,-106 382.15,-70 444.566,-70 444.566,-106"/>
<text text-anchor="middle" x="413.358" y="-84.7" font-family="Courier,monospace" font-size="11.00">Globals</text>
</g>
<!-- \\Alphred -->
<g id="node33" class="node"><title>\\Alphred</title>
<polygon fill="none" stroke="black" points="444.566,-52 382.15,-52 382.15,-16 444.566,-16 444.566,-52"/>
<text text-anchor="middle" x="413.358" y="-30.7" font-family="Courier,monospace" font-size="11.00">Alphred</text>
</g>
</g>
</svg>
